<mxfile host="65bd71144e">
    <diagram id="nnVmaFYIqSaF1pwP1oCi" name="第 1 页">
        <mxGraphModel dx="966" dy="688" grid="1" gridSize="10" guides="1" tooltips="1" connect="1" arrows="1" fold="1" page="1" pageScale="1" pageWidth="827" pageHeight="1169" math="0" shadow="0">
            <root>
                <mxCell id="0"/>
                <mxCell id="1" parent="0"/>
                <mxCell id="2" value="ST_GRBL_HAL" style="rounded=1;whiteSpace=wrap;html=1;fillColor=#60a917;strokeColor=#2D7600;fontColor=#ffffff;" vertex="1" parent="1">
                    <mxGeometry x="100" y="425" width="120" height="40" as="geometry"/>
                </mxCell>
                <mxCell id="3" value="step" style="rounded=1;whiteSpace=wrap;html=1;fillColor=#1ba1e2;strokeColor=#006EAF;fontColor=#ffffff;" vertex="1" parent="1">
                    <mxGeometry x="249" y="210" width="111" height="30" as="geometry"/>
                </mxCell>
                <mxCell id="4" value="limits" style="rounded=1;whiteSpace=wrap;html=1;fillColor=#1ba1e2;strokeColor=#006EAF;fontColor=#ffffff;" vertex="1" parent="1">
                    <mxGeometry x="249" y="310" width="111" height="30" as="geometry"/>
                </mxCell>
                <mxCell id="5" value="serial" style="rounded=1;whiteSpace=wrap;html=1;fillColor=#1ba1e2;strokeColor=#006EAF;fontColor=#ffffff;" vertex="1" parent="1">
                    <mxGeometry x="250" y="375" width="111" height="30" as="geometry"/>
                </mxCell>
                <mxCell id="6" value="eeprom" style="rounded=1;whiteSpace=wrap;html=1;" vertex="1" parent="1">
                    <mxGeometry x="250" y="445" width="111" height="30" as="geometry"/>
                </mxCell>
                <mxCell id="7" value="spindle" style="rounded=1;whiteSpace=wrap;html=1;" vertex="1" parent="1">
                    <mxGeometry x="250" y="515" width="111" height="30" as="geometry"/>
                </mxCell>
                <mxCell id="18" value="" style="shape=curlyBracket;whiteSpace=wrap;html=1;rounded=1;size=0.5;" vertex="1" parent="1">
                    <mxGeometry x="359" y="170" width="21" height="110" as="geometry"/>
                </mxCell>
                <mxCell id="20" value="TIM0" style="rounded=1;whiteSpace=wrap;html=1;fillColor=#d80073;strokeColor=#A50040;fontColor=#ffffff;" vertex="1" parent="1">
                    <mxGeometry x="389" y="170" width="91" height="20" as="geometry"/>
                </mxCell>
                <mxCell id="21" value="TIM1" style="rounded=1;whiteSpace=wrap;html=1;fillColor=#d80073;strokeColor=#A50040;fontColor=#ffffff;" vertex="1" parent="1">
                    <mxGeometry x="389" y="200" width="91" height="20" as="geometry"/>
                </mxCell>
                <mxCell id="22" value="STEP GPIO" style="rounded=1;whiteSpace=wrap;html=1;fillColor=#d80073;strokeColor=#A50040;fontColor=#ffffff;" vertex="1" parent="1">
                    <mxGeometry x="389" y="230" width="91" height="20" as="geometry"/>
                </mxCell>
                <mxCell id="23" value="DIR GPIO" style="rounded=1;whiteSpace=wrap;html=1;fillColor=#d80073;strokeColor=#A50040;fontColor=#ffffff;" vertex="1" parent="1">
                    <mxGeometry x="389" y="260" width="91" height="20" as="geometry"/>
                </mxCell>
                <mxCell id="24" value="" style="shape=curlyBracket;whiteSpace=wrap;html=1;rounded=1;size=0.5;" vertex="1" parent="1">
                    <mxGeometry x="359" y="300" width="21" height="50" as="geometry"/>
                </mxCell>
                <mxCell id="25" value="Limits GPIO" style="rounded=1;whiteSpace=wrap;html=1;fillColor=#d80073;strokeColor=#A50040;fontColor=#ffffff;" vertex="1" parent="1">
                    <mxGeometry x="389" y="315" width="91" height="20" as="geometry"/>
                </mxCell>
                <mxCell id="26" value="" style="shape=curlyBracket;whiteSpace=wrap;html=1;rounded=1;size=0.5;" vertex="1" parent="1">
                    <mxGeometry x="360" y="365" width="21" height="50" as="geometry"/>
                </mxCell>
                <mxCell id="27" value="USART" style="rounded=1;whiteSpace=wrap;html=1;fillColor=#d80073;strokeColor=#A50040;fontColor=#ffffff;" vertex="1" parent="1">
                    <mxGeometry x="390" y="380" width="91" height="20" as="geometry"/>
                </mxCell>
                <mxCell id="28" value="" style="shape=curlyBracket;whiteSpace=wrap;html=1;rounded=1;size=0.5;" vertex="1" parent="1">
                    <mxGeometry x="360" y="435" width="21" height="50" as="geometry"/>
                </mxCell>
                <mxCell id="29" value="MCU FLASH" style="rounded=1;whiteSpace=wrap;html=1;fillColor=#d80073;strokeColor=#A50040;fontColor=#ffffff;" vertex="1" parent="1">
                    <mxGeometry x="390" y="435" width="91" height="20" as="geometry"/>
                </mxCell>
                <mxCell id="30" value="EEPROM" style="rounded=1;whiteSpace=wrap;html=1;fillColor=#d80073;strokeColor=#A50040;fontColor=#ffffff;" vertex="1" parent="1">
                    <mxGeometry x="390" y="465" width="91" height="20" as="geometry"/>
                </mxCell>
                <mxCell id="31" value="" style="shape=curlyBracket;whiteSpace=wrap;html=1;rounded=1;size=0.5;" vertex="1" parent="1">
                    <mxGeometry x="360" y="505" width="21" height="50" as="geometry"/>
                </mxCell>
                <mxCell id="32" value="TIM PWM" style="rounded=1;whiteSpace=wrap;html=1;fillColor=#d80073;strokeColor=#A50040;fontColor=#ffffff;" vertex="1" parent="1">
                    <mxGeometry x="390" y="520" width="91" height="20" as="geometry"/>
                </mxCell>
                <mxCell id="33" value="" style="shape=curlyBracket;whiteSpace=wrap;html=1;rounded=1;size=0.5;" vertex="1" parent="1">
                    <mxGeometry x="220" y="220" width="20" height="450" as="geometry"/>
                </mxCell>
                <mxCell id="35" value="disp" style="rounded=1;whiteSpace=wrap;html=1;" vertex="1" parent="1">
                    <mxGeometry x="249" y="585" width="111" height="30" as="geometry"/>
                </mxCell>
                <mxCell id="36" value="" style="shape=curlyBracket;whiteSpace=wrap;html=1;rounded=1;size=0.5;" vertex="1" parent="1">
                    <mxGeometry x="360" y="575" width="21" height="50" as="geometry"/>
                </mxCell>
                <mxCell id="37" value="LCD" style="rounded=1;whiteSpace=wrap;html=1;fillColor=#d80073;strokeColor=#A50040;fontColor=#ffffff;" vertex="1" parent="1">
                    <mxGeometry x="390" y="575" width="91" height="20" as="geometry"/>
                </mxCell>
                <mxCell id="38" value="TOUCH" style="rounded=1;whiteSpace=wrap;html=1;fillColor=#d80073;strokeColor=#A50040;fontColor=#ffffff;" vertex="1" parent="1">
                    <mxGeometry x="390" y="605" width="91" height="20" as="geometry"/>
                </mxCell>
                <mxCell id="39" value="flash" style="rounded=1;whiteSpace=wrap;html=1;" vertex="1" parent="1">
                    <mxGeometry x="249" y="655" width="111" height="30" as="geometry"/>
                </mxCell>
                <mxCell id="40" value="SPI W25QXX" style="rounded=1;whiteSpace=wrap;html=1;fillColor=#d80073;strokeColor=#A50040;fontColor=#ffffff;" vertex="1" parent="1">
                    <mxGeometry x="390" y="645" width="91" height="20" as="geometry"/>
                </mxCell>
                <mxCell id="41" value="" style="shape=curlyBracket;whiteSpace=wrap;html=1;rounded=1;size=0.5;" vertex="1" parent="1">
                    <mxGeometry x="360" y="645" width="21" height="50" as="geometry"/>
                </mxCell>
                <mxCell id="42" value="flash" style="rounded=1;whiteSpace=wrap;html=1;" vertex="1" parent="1">
                    <mxGeometry x="250" y="655" width="111" height="30" as="geometry"/>
                </mxCell>
                <mxCell id="43" value="disp" style="rounded=1;whiteSpace=wrap;html=1;" vertex="1" parent="1">
                    <mxGeometry x="250" y="585" width="111" height="30" as="geometry"/>
                </mxCell>
                <mxCell id="44" value="flash" style="rounded=1;whiteSpace=wrap;html=1;" vertex="1" parent="1">
                    <mxGeometry x="250" y="655" width="111" height="30" as="geometry"/>
                </mxCell>
                <mxCell id="45" value="disp" style="rounded=1;whiteSpace=wrap;html=1;" vertex="1" parent="1">
                    <mxGeometry x="250" y="585" width="111" height="30" as="geometry"/>
                </mxCell>
                <mxCell id="46" value="spindle" style="rounded=1;whiteSpace=wrap;html=1;" vertex="1" parent="1">
                    <mxGeometry x="250" y="515" width="111" height="30" as="geometry"/>
                </mxCell>
                <mxCell id="47" value="spindle" style="rounded=1;whiteSpace=wrap;html=1;" vertex="1" parent="1">
                    <mxGeometry x="250" y="515" width="111" height="30" as="geometry"/>
                </mxCell>
                <mxCell id="48" value="disp" style="rounded=1;whiteSpace=wrap;html=1;" vertex="1" parent="1">
                    <mxGeometry x="250" y="585" width="111" height="30" as="geometry"/>
                </mxCell>
                <mxCell id="49" value="flash" style="rounded=1;whiteSpace=wrap;html=1;" vertex="1" parent="1">
                    <mxGeometry x="250" y="655" width="111" height="30" as="geometry"/>
                </mxCell>
                <mxCell id="50" value="eeprom" style="rounded=1;whiteSpace=wrap;html=1;" vertex="1" parent="1">
                    <mxGeometry x="250" y="445" width="111" height="30" as="geometry"/>
                </mxCell>
                <mxCell id="51" value="spindle" style="rounded=1;whiteSpace=wrap;html=1;" vertex="1" parent="1">
                    <mxGeometry x="250" y="515" width="111" height="30" as="geometry"/>
                </mxCell>
                <mxCell id="52" value="disp" style="rounded=1;whiteSpace=wrap;html=1;" vertex="1" parent="1">
                    <mxGeometry x="250" y="585" width="111" height="30" as="geometry"/>
                </mxCell>
                <mxCell id="53" value="flash" style="rounded=1;whiteSpace=wrap;html=1;" vertex="1" parent="1">
                    <mxGeometry x="250" y="655" width="111" height="30" as="geometry"/>
                </mxCell>
                <mxCell id="54" value="eeprom" style="rounded=1;whiteSpace=wrap;html=1;" vertex="1" parent="1">
                    <mxGeometry x="250" y="445" width="111" height="30" as="geometry"/>
                </mxCell>
                <mxCell id="55" value="spindle" style="rounded=1;whiteSpace=wrap;html=1;fillColor=#1ba1e2;strokeColor=#006EAF;fontColor=#ffffff;" vertex="1" parent="1">
                    <mxGeometry x="249" y="515" width="111" height="30" as="geometry"/>
                </mxCell>
                <mxCell id="56" value="disp" style="rounded=1;whiteSpace=wrap;html=1;fillColor=#1ba1e2;strokeColor=#006EAF;fontColor=#ffffff;" vertex="1" parent="1">
                    <mxGeometry x="249" y="585" width="111" height="30" as="geometry"/>
                </mxCell>
                <mxCell id="57" value="flash" style="rounded=1;whiteSpace=wrap;html=1;fillColor=#1ba1e2;strokeColor=#006EAF;fontColor=#ffffff;" vertex="1" parent="1">
                    <mxGeometry x="249" y="655" width="111" height="30" as="geometry"/>
                </mxCell>
                <mxCell id="58" value="eeprom" style="rounded=1;whiteSpace=wrap;html=1;fillColor=#1ba1e2;strokeColor=#006EAF;fontColor=#ffffff;" vertex="1" parent="1">
                    <mxGeometry x="249" y="445" width="111" height="30" as="geometry"/>
                </mxCell>
                <mxCell id="59" value="FATFS" style="rounded=1;whiteSpace=wrap;html=1;fillColor=#6a00ff;strokeColor=#3700CC;fontColor=#ffffff;" vertex="1" parent="1">
                    <mxGeometry x="499" y="645" width="91" height="45" as="geometry"/>
                </mxCell>
                <mxCell id="60" value="LVGL" style="rounded=1;whiteSpace=wrap;html=1;fillColor=#6a00ff;strokeColor=#3700CC;fontColor=#ffffff;" vertex="1" parent="1">
                    <mxGeometry x="500" y="575" width="91" height="45" as="geometry"/>
                </mxCell>
                <mxCell id="61" value="Laser" style="rounded=1;whiteSpace=wrap;html=1;fillColor=#6a00ff;strokeColor=#3700CC;fontColor=#ffffff;" vertex="1" parent="1">
                    <mxGeometry x="500" y="517.5" width="90" height="22.5" as="geometry"/>
                </mxCell>
                <mxCell id="62" value="Settings" style="rounded=1;whiteSpace=wrap;html=1;fillColor=#6a00ff;strokeColor=#3700CC;fontColor=#ffffff;" vertex="1" parent="1">
                    <mxGeometry x="499" y="435" width="90" height="50" as="geometry"/>
                </mxCell>
                <mxCell id="63" value="COM" style="rounded=1;whiteSpace=wrap;html=1;fillColor=#6a00ff;strokeColor=#3700CC;fontColor=#ffffff;" vertex="1" parent="1">
                    <mxGeometry x="500" y="380" width="89" height="20" as="geometry"/>
                </mxCell>
                <mxCell id="64" value="limits+fifo" style="rounded=1;whiteSpace=wrap;html=1;fillColor=#6a00ff;strokeColor=#3700CC;fontColor=#ffffff;" vertex="1" parent="1">
                    <mxGeometry x="500" y="315" width="89" height="20" as="geometry"/>
                </mxCell>
                <mxCell id="65" value="Motors" style="rounded=1;whiteSpace=wrap;html=1;fillColor=#6a00ff;strokeColor=#3700CC;fontColor=#ffffff;" vertex="1" parent="1">
                    <mxGeometry x="500" y="170" width="90" height="110" as="geometry"/>
                </mxCell>
                <mxCell id="67" value="SDCard" style="rounded=1;whiteSpace=wrap;html=1;fillColor=#d80073;strokeColor=#A50040;fontColor=#ffffff;" vertex="1" parent="1">
                    <mxGeometry x="390" y="675" width="91" height="20" as="geometry"/>
                </mxCell>
            </root>
        </mxGraphModel>
    </diagram>
</mxfile>